<svg width="50" height="34" viewBox="0 0 50 34" fill="none" xmlns="http://www.w3.org/2000/svg">
<path d="M43.75 0H6.25C4.59294 0.00153408 3.00426 0.571912 1.83254 1.58598C0.660822 2.60005 0.00177257 3.97498 0 5.40909V28.5909C0.00177257 30.025 0.660822 31.3999 1.83254 32.414C3.00426 33.4281 4.59294 33.9985 6.25 34H43.75C45.4071 33.9985 46.9957 33.4281 48.1675 32.414C49.3392 31.3999 49.9982 30.025 50 28.5909V5.40909C49.9982 3.97498 49.3392 2.60005 48.1675 1.58598C46.9957 0.571912 45.4071 0.00153408 43.75 0ZM42.1674 8.94722L26.096 19.7654C25.7826 19.9762 25.397 20.0907 25 20.0907C24.603 20.0907 24.2174 19.9762 23.904 19.7654L7.83259 8.94722C7.64376 8.82381 7.48516 8.66915 7.366 8.49223C7.24684 8.31531 7.16949 8.11966 7.13845 7.91665C7.10741 7.71364 7.1233 7.50731 7.18519 7.30966C7.24709 7.11201 7.35376 6.92697 7.49899 6.76531C7.64423 6.60364 7.82515 6.46857 8.03123 6.36794C8.2373 6.26731 8.46444 6.20312 8.69942 6.17912C8.93441 6.15512 9.17257 6.17177 9.40005 6.22812C9.62754 6.28446 9.83982 6.37937 10.0246 6.50733L25 16.5876L39.9754 6.50733C40.3499 6.26259 40.8206 6.15525 41.2858 6.20852C41.751 6.26179 42.1733 6.4714 42.4613 6.792C42.7494 7.11261 42.88 7.51846 42.825 7.92177C42.77 8.32508 42.5338 8.69345 42.1674 8.94722Z" fill="white"/>
<path d="M43.75 0H6.25C4.59294 0.00153408 3.00426 0.571912 1.83254 1.58598C0.660822 2.60005 0.00177257 3.97498 0 5.40909V28.5909C0.00177257 30.025 0.660822 31.3999 1.83254 32.414C3.00426 33.4281 4.59294 33.9985 6.25 34H43.75C45.4071 33.9985 46.9957 33.4281 48.1675 32.414C49.3392 31.3999 49.9982 30.025 50 28.5909V5.40909C49.9982 3.97498 49.3392 2.60005 48.1675 1.58598C46.9957 0.571912 45.4071 0.00153408 43.75 0ZM42.1674 8.94722L26.096 19.7654C25.7826 19.9762 25.397 20.0907 25 20.0907C24.603 20.0907 24.2174 19.9762 23.904 19.7654L7.83259 8.94722C7.64376 8.82381 7.48516 8.66915 7.366 8.49223C7.24684 8.31531 7.16949 8.11966 7.13845 7.91665C7.10741 7.71364 7.1233 7.50731 7.18519 7.30966C7.24709 7.11201 7.35376 6.92697 7.49899 6.76531C7.64423 6.60364 7.82515 6.46857 8.03123 6.36794C8.2373 6.26731 8.46444 6.20312 8.69942 6.17912C8.93441 6.15512 9.17257 6.17177 9.40005 6.22812C9.62754 6.28446 9.83982 6.37937 10.0246 6.50733L25 16.5876L39.9754 6.50733C40.3499 6.26259 40.8206 6.15525 41.2858 6.20852C41.751 6.26179 42.1733 6.4714 42.4613 6.792C42.7494 7.11261 42.88 7.51846 42.825 7.92177C42.77 8.32508 42.5338 8.69345 42.1674 8.94722Z" stroke="black"/>
</svg>
