<svg width="484" height="397" viewBox="0 0 484 397" fill="none" xmlns="http://www.w3.org/2000/svg">
<path d="M0 0H484V276L237.481 393L0 276V0Z" fill="white"/>
<path fill-rule="evenodd" clip-rule="evenodd" d="M237 397L484 276V1.00004L237 126L0 1V276L237 397ZM244 377.981L470 267.269V23.7757L244 138.148V377.981ZM230 138.136V377.707L14 267.429V24.2119L230 138.136Z" fill="#111916"/>
<path fill-rule="evenodd" clip-rule="evenodd" d="M238.302 378.65L473 6L479.769 10.2634L245.072 382.913L238.302 378.65Z" fill="#CC2200"/>
<path fill-rule="evenodd" clip-rule="evenodd" d="M235.462 377.676L7.23593 5.97391L0.418461 10.1599L228.644 381.862L235.462 377.676Z" fill="#CC2200"/>
<path fill-rule="evenodd" clip-rule="evenodd" d="M482.005 8H1.9953V0L482.005 0V8Z" fill="#CC2200"/>
</svg>
